<svg width="300" height="90" viewBox="0 0 300 90" fill="none" xmlns="http://www.w3.org/2000/svg">
<path d="M136.68 65.28C129.192 66.08 122.312 66.48 116.04 66.48C112.904 66.48 110.6 65.744 109.128 64.272C107.656 62.8 106.92 60.496 106.92 57.36V42C106.92 38.64 107.672 36.208 109.176 34.704C110.712 33.168 113.16 32.4 116.52 32.4H133.8V39.12H118.44C116.52 39.12 115.56 40.08 115.56 42V57.36C115.56 58.096 115.768 58.688 116.184 59.136C116.632 59.552 117.224 59.76 117.96 59.76C121.64 59.76 125 59.68 128.04 59.52V52.56H121.8V46.8H136.68V65.28ZM135.727 32.4H144.848L152.768 48.72L160.688 32.4H169.808L157.088 57.12V66H148.448V57.12L135.727 32.4ZM200.524 47.28L193.804 59.28H187.084L180.364 47.28V66H171.724V32.4H180.844L190.444 50.16L200.044 32.4H209.164V66H200.524V47.28ZM223.583 66H214.943V32.4H241.583V39.12H223.583V47.04H237.743V53.76H223.583V66ZM260.783 66H243.503V59.28H247.823V39.12H243.503V32.4H260.783V39.12H256.463V59.28H260.783V66ZM281.419 66H272.779V39.12H262.699V32.4H291.499V39.12H281.419V66Z" fill="white"/>
<path d="M50.5541 44.8304C50.5541 45.0204 50.5429 45.2075 50.5261 45.3937C50.2438 42.3237 47.6869 39.9184 44.57 39.9184C41.4541 39.9184 38.8963 42.3237 38.6149 45.3937C38.5981 45.2075 38.5869 45.0204 38.5869 44.8304C38.5869 41.4953 41.2659 38.792 44.57 38.792C47.8751 38.792 50.5541 41.4953 50.5541 44.8304Z" fill="#FF3D00"/>
<path d="M37.7362 44.8309C37.7362 48.6399 40.7963 51.7268 44.5701 51.7268C48.3448 51.7268 51.4039 48.6399 51.4039 44.8309C51.4039 41.0228 48.3448 37.9349 44.5701 37.9349C40.7963 37.9349 37.7362 41.0228 37.7362 44.8309ZM59.2572 44.8309C59.2572 52.7564 52.6814 59.1813 44.5701 59.1813C36.4587 59.1813 29.883 52.7564 29.883 44.8309C29.883 36.9053 36.4587 30.4805 44.5701 30.4805C52.6814 30.4805 59.2572 36.9053 59.2572 44.8309Z" fill="white"/>
<path d="M72.267 11.0237C64.7781 4.56126 55.1302 0.665697 44.5943 0.665697C34.0574 0.665697 24.4086 4.5622 16.9197 11.0256C7.26156 18.9775 1.10511 31.0064 1.10511 44.4692C1.10511 49.9933 2.15339 55.2711 4.04309 60.1304C10.0402 77.2161 25.9303 89.4292 44.5943 89.4292C63.2583 89.4292 79.1474 77.2161 85.1455 60.1313C87.0352 55.272 88.0834 49.9933 88.0834 44.4692C88.0834 31.0055 81.9261 18.9756 72.267 11.0237ZM44.5943 90C19.9658 90 0 69.8528 0 45.0005C0 20.1472 19.9658 0 44.5943 0C69.2228 0 89.1885 20.1472 89.1885 45.0005C89.1885 69.8528 69.2228 90 44.5943 90Z" fill="white"/>
<path d="M65.9717 15.6641C73.8278 22.5065 78.866 33.0253 78.866 44.8304C78.866 56.6364 73.8278 67.1543 65.9717 73.9967C74.8071 67.3847 80.5359 56.7831 80.5359 44.8304C80.5359 32.8776 74.8071 22.277 65.9717 15.6641ZM63.5863 17.9856C58.2266 14.1108 51.6667 11.8193 44.5701 11.8193C36.7904 11.8193 29.6538 14.5715 24.0396 19.1487C23.2327 19.6405 22.4155 20.2291 21.6058 20.9005C16.2246 26.0597 12.8188 32.84 11.7352 40.0397C11.7762 40.5117 11.8423 40.9781 11.9429 41.4332C12.6548 44.6602 15.263 47.2413 18.555 45.7152C19.7524 45.1604 20.7168 44.3763 21.5228 43.4369C21.9794 36.7854 25.2799 30.4612 30.8726 26.3606C31.8081 25.2041 32.5414 23.9328 32.615 22.3372C32.6858 20.7764 32.0028 19.1384 30.6918 18.3063C29.7022 17.6772 28.5319 17.5785 27.3699 17.7863C32.4044 14.9768 38.2813 13.352 44.5701 13.352C50.6892 13.352 56.4208 14.8874 61.363 17.5578C58.8267 17.46 56.5177 18.7237 56.3155 21.663C56.2241 22.9888 56.4431 24.2187 56.8727 25.3828C62.4393 28.9755 66.3575 34.9312 67.2418 41.8497C67.799 43.2329 68.5538 44.4919 69.9058 45.3203C71.229 46.1327 72.9808 46.3123 74.3338 45.5506C76.1722 44.5154 76.803 42.1403 76.8096 40.0153C76.8133 38.8493 76.6819 37.58 76.4331 36.2608C74.5257 29.0216 70.2627 22.7556 64.52 18.3439C64.2125 18.2085 63.9003 18.0909 63.5863 17.9856ZM8.60522 44.8304C8.60522 56.7831 14.334 67.3847 23.1693 73.9967C15.3133 67.1543 10.275 56.6364 10.275 44.8304C10.275 33.0253 15.3133 22.5065 23.1693 15.6641C14.334 22.277 8.60522 32.8776 8.60522 44.8304ZM29.7022 44.8304C29.7022 53.1161 36.359 59.8334 44.5701 59.8334C52.7821 59.8334 59.4379 53.1161 59.4379 44.8304C59.4379 36.5447 52.7821 29.8274 44.5701 29.8274C36.359 29.8274 29.7022 36.5447 29.7022 44.8304ZM26.945 69.8877C27.1332 67.8887 28.461 65.995 30.3936 65.0218C31.4242 64.5028 32.5265 64.2508 33.7612 64.2508C34.3789 64.2508 35.034 64.3147 35.7645 64.4454L35.9779 64.4839L36.1745 64.5761C38.9699 65.8821 41.9498 66.5441 45.0313 66.5441C48.1426 66.5441 51.2763 65.837 54.0922 64.5L54.5991 64.2592L55.147 64.3739C56.6798 64.6965 58.0095 65.2841 59.2106 66.1699C60.6772 67.2512 61.5177 68.702 61.6715 70.3719C61.6994 70.0795 61.7115 69.789 61.6976 69.5022C61.6118 67.7223 60.7518 66.1812 59.2106 65.0444C58.0095 64.1577 56.6798 63.57 55.147 63.2475L54.5991 63.1328L54.0922 63.3735C51.2763 64.7106 48.1426 65.4177 45.0313 65.4177C41.9498 65.4177 38.9699 64.7557 36.1745 63.4496L35.9779 63.3575L35.7645 63.319C35.034 63.1883 34.3789 63.1243 33.7612 63.1243C32.5265 63.1243 31.4242 63.3763 30.3936 63.8953C28.3902 64.9043 27.0261 66.8986 26.917 68.9775C26.9012 69.2822 26.9105 69.5859 26.945 69.8877ZM32.1184 27.4626L32.2945 27.3338L32.4315 27.1646C33.2906 26.1021 34.4451 24.4274 34.5495 22.151C34.6389 20.1812 33.8404 18.2743 32.4753 17.0839C33.4956 18.2677 34.0677 19.9047 33.9913 21.5878C33.8869 23.8642 32.7324 25.5388 31.8733 26.6013L31.7363 26.7706L31.5612 26.8994C26.4903 30.6182 23.3324 36.3858 22.8972 42.7261L22.859 43.2893L22.4919 43.7162C21.466 44.9103 20.3106 45.7951 18.9585 46.4223C18.0929 46.8238 17.2142 47.0278 16.3476 47.0278C14.9098 47.0278 13.5773 46.4599 12.489 45.4726C13.6612 46.8078 15.2117 47.5901 16.9057 47.5901C17.7723 47.5901 18.651 47.387 19.5167 46.9855C20.8687 46.3583 22.0241 45.4735 23.05 44.2794L23.4172 43.8525L23.4554 43.2893C23.8905 36.95 27.0475 31.1805 32.1184 27.4626ZM55.2029 20.9823C55.3026 19.5408 55.8058 18.3166 56.6202 17.3744C55.474 18.3646 54.7649 19.7985 54.6457 21.5455C54.5413 23.0424 54.7575 24.4904 55.3035 25.9723L55.4992 26.5017L55.9707 26.8063C61.2764 30.2308 64.78 35.7934 65.5813 42.066L65.6093 42.2832L65.6913 42.4863C66.2028 43.7557 67.1067 45.5807 69.0355 46.7645C70.0456 47.3842 71.243 47.7245 72.4068 47.7245C73.3889 47.7245 74.3375 47.4829 75.15 47.0259C75.711 46.71 76.2067 46.2944 76.6353 45.7979C76.3483 46.0509 76.0408 46.2756 75.7082 46.4627C74.8956 46.9206 73.9471 47.1623 72.9649 47.1623C71.8011 47.1623 70.6037 46.8209 69.5937 46.2013C67.6648 45.0184 66.761 43.1924 66.2494 41.9231L66.1674 41.72L66.1395 41.5028C65.3381 35.2293 61.8345 29.6676 56.5288 26.2431L56.0573 25.9384L55.8617 25.4091C55.3156 23.9272 55.0995 22.4792 55.2029 20.9823ZM70.8609 64.4736C67.5922 68.2968 63.3841 71.3818 58.5732 73.4466C60.3623 71.2624 60.7853 68.2977 58.2219 66.4078C57.1588 65.6236 56.0108 65.1553 54.805 64.9024C48.8265 67.7401 41.7448 67.9131 35.471 64.9823C34.0146 64.7218 32.5573 64.6946 31.1409 65.4073C29.7553 66.105 28.6707 67.505 28.5887 69.0668C28.4871 71.0141 29.8755 72.6925 31.4801 73.8359C26.2843 71.7795 21.7558 68.5384 18.2792 64.4736C24.24 72.5835 33.7956 77.8415 44.5701 77.8415C55.3455 77.8415 64.9011 72.5835 70.8609 64.4736ZM87.7033 45.0466C87.7033 50.3441 86.7985 55.4216 85.1455 60.1315C78.8437 76.3305 63.0701 87.8215 44.5943 87.8215C26.1185 87.8215 10.344 76.3305 4.04311 60.1305C2.39009 55.4216 1.48531 50.3432 1.48531 45.0466C1.48531 31.3836 7.48708 19.1676 16.9197 11.0257C24.4394 4.83594 34.0808 1.11621 44.5943 1.11621C55.1069 1.11621 64.7483 4.835 72.267 11.0239C81.7006 19.1657 87.7033 31.3826 87.7033 45.0466Z" fill="#FF3D00"/>
</svg>
