<svg width="174" height="42" viewBox="0 0 174 42" fill="none" xmlns="http://www.w3.org/2000/svg">
<path d="M70.12 32.52C65.128 33.0533 60.5413 33.32 56.36 33.32C54.2693 33.32 52.7333 32.8293 51.752 31.848C50.7707 30.8667 50.28 29.3307 50.28 27.24V17C50.28 14.76 50.7813 13.1387 51.784 12.136C52.808 11.112 54.44 10.6 56.68 10.6H68.2V15.08H57.96C56.68 15.08 56.04 15.72 56.04 17V27.24C56.04 27.7307 56.1787 28.1253 56.456 28.424C56.7547 28.7013 57.1493 28.84 57.64 28.84C60.0933 28.84 62.3333 28.7867 64.36 28.68V24.04H60.2V20.2H70.12V32.52ZM69.485 10.6H75.565L80.845 21.48L86.125 10.6H92.205L83.725 27.08V33H77.965V27.08L69.485 10.6ZM112.683 20.52L108.203 28.52H103.723L99.2425 20.52V33H93.4825V10.6H99.5625L105.963 22.44L112.363 10.6H118.443V33H112.683V20.52ZM128.055 33H122.295V10.6H140.055V15.08H128.055V20.36H137.495V24.84H128.055V33ZM152.855 33H141.335V28.52H144.215V15.08H141.335V10.6H152.855V15.08H149.975V28.52H152.855V33ZM166.613 33H160.853V15.08H154.133V10.6H173.333V15.08H166.613V33Z" fill="black"/>
<path d="M23.592 20.9208C23.592 21.0095 23.5868 21.0968 23.579 21.1837C23.4472 19.751 22.254 18.6286 20.7995 18.6286C19.3453 18.6286 18.1517 19.751 18.0204 21.1837C18.0125 21.0968 18.0073 21.0095 18.0073 20.9208C18.0073 19.3644 19.2575 18.1029 20.7995 18.1029C22.3418 18.1029 23.592 19.3644 23.592 20.9208Z" fill="#FF3D00"/>
<path d="M17.6102 20.9208C17.6102 22.6984 19.0382 24.1389 20.7993 24.1389C22.5608 24.1389 23.9884 22.6984 23.9884 20.9208C23.9884 19.1437 22.5608 17.7027 20.7993 17.7027C19.0382 17.7027 17.6102 19.1437 17.6102 20.9208ZM27.6533 20.9208C27.6533 24.6194 24.5846 27.6177 20.7993 27.6177C17.014 27.6177 13.9453 24.6194 13.9453 20.9208C13.9453 17.2222 17.014 14.224 20.7993 14.224C24.5846 14.224 27.6533 17.2222 27.6533 20.9208Z" fill="white"/>
<path d="M33.7246 5.14441C30.2298 2.12859 25.7274 0.310659 20.8107 0.310659C15.8935 0.310659 11.3907 2.12903 7.89586 5.14529C3.38873 8.85617 0.515716 14.4697 0.515716 20.7523C0.515716 23.3302 1.00491 25.7932 1.88677 28.0608C4.68542 36.0342 12.1008 41.7336 20.8107 41.7336C29.5205 41.7336 36.9355 36.0342 39.7345 28.0613C40.6164 25.7936 41.1056 23.3302 41.1056 20.7523C41.1056 14.4692 38.2322 8.85529 33.7246 5.14441ZM20.8107 42C9.31736 42 0 32.598 0 21.0002C0 9.40202 9.31736 0 20.8107 0C32.304 0 41.6213 9.40202 41.6213 21.0002C41.6213 32.598 32.304 42 20.8107 42Z" fill="white"/>
<path d="M30.7868 7.30993C34.4529 10.503 36.8041 15.4118 36.8041 20.9209C36.8041 26.4304 34.4529 31.3387 30.7868 34.5318C34.9099 31.4462 37.5834 26.4988 37.5834 20.9209C37.5834 15.3429 34.9099 10.396 30.7868 7.30993ZM29.6736 8.39331C27.1724 6.58504 24.1111 5.51571 20.7993 5.51571C17.1688 5.51571 13.8384 6.80006 11.2185 8.9361C10.8419 9.16559 10.4605 9.44027 10.0827 9.75357C7.57144 12.1612 5.9821 15.3254 5.47637 18.6852C5.49551 18.9055 5.52638 19.1231 5.57334 19.3355C5.90556 20.8414 7.12268 22.0459 8.65898 21.3338C9.21775 21.0749 9.66782 20.7089 10.044 20.2706C10.257 17.1666 11.7972 14.2152 14.4072 12.3016C14.8437 11.7619 15.186 11.1687 15.2203 10.424C15.2534 9.69565 14.9346 8.93128 14.3228 8.54294C13.861 8.24939 13.3148 8.20332 12.7726 8.30029C15.122 6.98918 17.8646 6.23095 20.7993 6.23095C23.6549 6.23095 26.3297 6.94749 28.6361 8.19367C27.4524 8.14803 26.3749 8.73777 26.2805 10.1094C26.2379 10.7281 26.3401 11.3021 26.5405 11.8453C29.1383 13.5219 30.9668 16.3012 31.3795 19.5299C31.6395 20.1754 31.9917 20.7629 32.6227 21.1495C33.2402 21.5286 34.0577 21.6124 34.689 21.257C35.547 20.7739 35.8414 19.6655 35.8444 18.6738C35.8462 18.1297 35.7849 17.5373 35.6687 16.9217C34.7786 13.5434 32.7892 10.6193 30.1093 8.56049C29.9658 8.49731 29.8201 8.44245 29.6736 8.39331ZM4.01574 20.9209C4.01574 26.4988 6.68915 31.4462 10.8123 34.5318C7.14617 31.3387 4.79498 26.4304 4.79498 20.9209C4.79498 15.4118 7.14617 10.503 10.8123 7.30993C6.68915 10.396 4.01574 15.3429 4.01574 20.9209ZM13.861 20.9209C13.861 24.7875 16.9675 27.9223 20.7993 27.9223C24.6316 27.9223 27.7377 24.7875 27.7377 20.9209C27.7377 17.0542 24.6316 13.9195 20.7993 13.9195C16.9675 13.9195 13.861 17.0542 13.861 20.9209ZM12.5743 32.6143C12.6621 31.6814 13.2818 30.7977 14.1836 30.3435C14.6646 30.1013 15.179 29.9837 15.7552 29.9837C16.0435 29.9837 16.3492 30.0135 16.6901 30.0745L16.7896 30.0925L16.8814 30.1355C18.1859 30.745 19.5766 31.0539 21.0146 31.0539C22.4665 31.0539 23.9289 30.724 25.243 30.1L25.4795 29.9877L25.7352 30.0412C26.4505 30.1917 27.0711 30.4659 27.6316 30.8793C28.316 31.3839 28.7082 32.061 28.78 32.8403C28.793 32.7038 28.7987 32.5682 28.7922 32.4344C28.7521 31.6037 28.3508 30.8846 27.6316 30.3541C27.0711 29.9403 26.4505 29.666 25.7352 29.5155L25.4795 29.462L25.243 29.5743C23.9289 30.1983 22.4665 30.5283 21.0146 30.5283C19.5766 30.5283 18.1859 30.2193 16.8814 29.6099L16.7896 29.5669L16.6901 29.5489C16.3492 29.4879 16.0435 29.458 15.7552 29.458C15.179 29.458 14.6646 29.5756 14.1836 29.8178C13.2487 30.2887 12.6121 31.2193 12.5612 32.1895C12.5539 32.3317 12.5582 32.4734 12.5743 32.6143ZM14.9885 12.8159L15.0707 12.7558L15.1347 12.6768C15.5356 12.181 16.0743 11.3995 16.123 10.3372C16.1648 9.41789 15.7921 8.52803 15.1551 7.97251C15.6312 8.52495 15.8982 9.28889 15.8626 10.0743C15.8139 11.1366 15.2751 11.9181 14.8742 12.414L14.8102 12.493L14.7285 12.5531C12.3621 14.2885 10.8884 16.9801 10.6853 19.9388L10.6675 20.2017L10.4962 20.4009C10.0174 20.9582 9.47822 21.3711 8.84727 21.6637C8.4433 21.8511 8.03324 21.9463 7.62884 21.9463C6.95788 21.9463 6.33606 21.6813 5.82817 21.2206C6.3752 21.8437 7.09877 22.2087 7.88931 22.2087C8.29371 22.2087 8.70377 22.114 9.10774 21.9266C9.73869 21.6339 10.2779 21.221 10.7567 20.6637L10.928 20.4645L10.9458 20.2017C11.1489 17.2433 12.6221 14.5509 14.9885 12.8159ZM25.7613 9.79175C25.8078 9.11908 26.0426 8.54776 26.4227 8.10809C25.8878 8.57014 25.5569 9.23931 25.5013 10.0546C25.4526 10.7531 25.5535 11.4289 25.8083 12.1204L25.8996 12.3675L26.1196 12.5096C28.5956 14.1077 30.2306 16.7036 30.6046 19.6308L30.6176 19.7322L30.6559 19.827C30.8946 20.4193 31.3164 21.271 32.2165 21.8235C32.6879 22.1126 33.2467 22.2715 33.7898 22.2715C34.2481 22.2715 34.6908 22.1587 35.07 21.9455C35.3317 21.798 35.5631 21.6041 35.7631 21.3724C35.6292 21.4904 35.4857 21.5953 35.3304 21.6826C34.9513 21.8963 34.5086 22.0091 34.0503 22.0091C33.5071 22.0091 32.9484 21.8498 32.477 21.5606C31.5769 21.0086 31.1551 20.1565 30.9164 19.5641L30.8781 19.4693L30.8651 19.368C30.4911 16.4403 28.8561 13.8449 26.3801 12.2468L26.1601 12.1046L26.0687 11.8576C25.8139 11.1661 25.713 10.4903 25.7613 9.79175ZM33.0684 30.0877C31.543 31.8718 29.5792 33.3115 27.3341 34.2751C28.169 33.2558 28.3665 31.8723 27.1702 30.9903C26.674 30.6244 26.1383 30.4058 25.5756 30.2878C22.7857 31.6121 19.4809 31.6928 16.5531 30.3251C15.8734 30.2035 15.1933 30.1908 14.5324 30.5234C13.8858 30.849 13.3796 31.5024 13.3414 32.2312C13.294 33.1399 13.9419 33.9232 14.6907 34.4568C12.266 33.4971 10.1527 31.9846 8.53027 30.0877C11.312 33.8723 15.7713 36.326 20.7993 36.326C25.8278 36.326 30.2871 33.8723 33.0684 30.0877ZM40.9282 21.0218C40.9282 23.494 40.5059 25.8634 39.7345 28.0614C36.7937 35.6209 29.4327 40.9834 20.8106 40.9834C12.1886 40.9834 4.82715 35.6209 1.88675 28.0609C1.11534 25.8634 0.693115 23.4935 0.693115 21.0218C0.693115 14.6457 3.49394 8.94488 7.89584 5.14537C11.405 2.25679 15.9043 0.52092 20.8106 0.52092C25.7165 0.52092 30.2158 2.25635 33.7246 5.14449C38.1269 8.94401 40.9282 14.6452 40.9282 21.0218Z" fill="#FF3D00"/>
</svg>
